<svg version="1.2" baseProfile="tiny-ps" xmlns="http://www.w3.org/2000/svg" viewBox="0 0 40 40" width="40" height="40">
	<title>marriage-svg</title>
	<style>
		tspan { white-space:pre }
		.s0 { fill: #000000 } 
	</style>
	<g id="Layer">
		<g id="Layer">
			<path id="Layer" fill-rule="evenodd" class="s0" d="m0 22.99c0-6.88 5.59-12.47 12.47-12.47c2.82 0 5.41 0.95 7.5 2.53c2.09-1.58 4.68-2.53 7.5-2.53c6.88 0 12.47 5.59 12.47 12.47c0 6.88-5.59 12.47-12.47 12.47c-2.82 0-5.41-0.95-7.5-2.53c-2.09 1.58-4.68 2.53-7.5 2.53c-6.88 0-12.47-5.6-12.47-12.47zm18.43 0c0 1.86 0.57 3.6 1.54 5.04c0.97-1.44 1.54-3.18 1.54-5.04c0-1.86-0.57-3.6-1.54-5.04c-0.97 1.44-1.54 3.18-1.54 5.04zm3.99-7.49c1.58 2.09 2.53 4.68 2.53 7.49c0 2.81-0.95 5.4-2.53 7.49c1.44 0.98 3.18 1.55 5.05 1.55c4.98 0 9.04-4.05 9.04-9.04c0-4.98-4.06-9.04-9.04-9.04c-1.87 0-3.61 0.57-5.05 1.55zm-18.99 7.49c0 4.98 4.06 9.04 9.04 9.04c1.87 0 3.61-0.57 5.05-1.55c-1.58-2.09-2.53-4.68-2.53-7.49c0-2.81 0.95-5.4 2.53-7.49c-1.44-0.98-3.18-1.55-5.05-1.55c-4.98 0-9.04 4.06-9.04 9.04z" />
			<path id="Layer" class="s0" d="m23.29 5.03c1.66 1.52 0.21 5.03-3.55 6.55l-0.01-0.01c-3.76-1.52-5.21-5.02-3.55-6.53c1.66-1.52 3.55 0.56 3.55 0.56h0.01c0 0 1.9-2.08 3.55-0.56z" />
		</g>
	</g>
</svg>