<?xml version="1.0" encoding="iso-8859-1"?>
<!-- Generator: Adobe Illustrator 19.0.0, SVG Export Plug-In . SVG Version: 6.00 Build 0)  -->
<svg version="1.1" id="Layer_1" xmlns="http://www.w3.org/2000/svg" xmlns:xlink="http://www.w3.org/1999/xlink" x="0px" y="0px"
	 viewBox="0 0 432.001 432.001" style="enable-background:new 0 0 432.001 432.001;" xml:space="preserve">
<g transform="translate(0 -1020.36)" shape-rendering="auto" image-rendering="auto" color-rendering="auto" color-interpolation="sRGB">
	<path style="fill:#FABD6B;" d="M77.304,1217.118c-1.907,0.072-3.77,0.6-5.433,1.535c-35.334,18.676-57.972,54.846-59.41,94.83
		c-1.438,39.986,18.543,77.791,52.442,98.965s76.647,22.578,111.852,3.664c5.849-3.145,8.041-10.436,4.896-16.283
		c-3.145-5.85-10.436-8.041-16.286-4.896c-0.022,0.014-0.045,0.025-0.067,0.037c-27.66,14.863-61.003,13.686-87.639-2.951
		s-42.353-46.248-41.221-77.705c1.132-31.457,18.893-59.846,46.654-74.518c5.9-3.02,8.234-10.25,5.213-16.148
		c-2.105-4.111-6.383-6.65-11.001-6.527L77.304,1217.118z"/>
	<g>
		<path style="fill:#484666;" d="M71.871,1202.12c-1.249,0.076-2.462,0.443-3.543,1.072c-42.609,22.465-69,66.984-68.268,115.143
			c0.732,48.158,28.422,91.855,71.694,113.018s94.879,16.232,133.348-12.756c3.503-2.699,4.154-7.729,1.454-11.23
			c-2.672-3.467-7.633-4.145-11.139-1.523c-33.685,25.383-78.686,29.631-116.576,11.102s-62.195-56.678-62.835-98.846
			c-0.641-42.168,22.454-81.063,59.764-100.734c4.006-1.865,5.741-6.623,3.876-10.629c-1.393-2.99-4.48-4.82-7.773-4.605V1202.12z"
			/>
		<path style="fill:#484666;" d="M182.423,1201.884c-4.394,0.467-7.577,4.408-7.11,8.801c0.289,2.717,1.946,5.1,4.393,6.316
			c52.398,27.223,74.596,90.23,50.906,144.313c-1.996,3.941-0.418,8.754,3.524,10.75c3.942,1.996,8.756,0.418,10.752-3.523
			c0.14-0.275,0.263-0.559,0.37-0.85c27.009-61.656,1.508-133.824-58.229-164.861c-1.406-0.77-3.011-1.098-4.606-0.943
			L182.423,1201.884z"/>
		<g>
			<path style="fill:#484666;" d="M127.138,1028.404c-4.116,0.472-7.19,4.008-7.086,8.148v31.766
				c-0.372,4.402,2.896,8.273,7.299,8.645c4.403,0.371,8.273-2.896,8.645-7.299c0.038-0.447,0.038-0.898,0-1.346v-31.767
				c0.108-4.417-3.386-8.085-7.803-8.192C127.84,1028.35,127.488,1028.365,127.138,1028.404L127.138,1028.404z"/>
			<path style="fill:#484666;" d="M247.012,1060.407c-1.797,0.23-3.463,1.064-4.724,2.365l-23.857,23.854
				c-3.131,3.131-3.131,8.207,0,11.338s8.207,3.131,11.338,0l23.857-23.855c3.188-3.059,3.292-8.123,0.233-11.311
				c-1.77-1.844-4.314-2.732-6.846-2.389L247.012,1060.407z"/>
			<path style="fill:#484666;" d="M7.264,1068.437c-4.4,0.406-7.636,4.303-7.229,8.703c0.175,1.896,1.022,3.668,2.387,4.996
				l23.857,23.855c3.131,3.131,8.207,3.131,11.338,0s3.131-8.207,0-11.338L13.759,1070.8
				C12.064,1069.07,9.675,1068.2,7.264,1068.437z"/>
			<path style="fill:#484666;" d="M92.652,1108.355l-39.328,39.443l74.641,93.414l74.759-93.412l-39.446-39.445H92.652z"/>
		</g>
	</g>
	<path style="fill:#93CFEF;" d="M99.384,1124.415h57.28l24.683,24.563l-53.382,66.605L74.7,1148.978L99.384,1124.415z"/>
	<path style="fill:#FABD6B;" d="M325.708,1200.468c-26.935-5.049-55.596-0.752-80.788,13.818c-5.974,2.869-8.49,10.039-5.62,16.012
		c2.87,5.975,10.04,8.49,16.014,5.619c0.576-0.275,1.129-0.598,1.653-0.963c40.272-23.293,91.249-13.734,120.356,22.555
		c29.107,36.289,27.352,88.219-4.134,122.465c-31.486,34.244-83.044,40.359-121.655,14.406
		c-38.611-25.951-52.43-76.014-32.599-118.094c3.29-5.752,1.293-13.084-4.461-16.373s-13.085-1.293-16.375,4.461
		c-0.3,0.525-0.561,1.072-0.779,1.637c-24.811,52.648-7.44,115.74,40.867,148.211c48.306,32.469,113.325,24.775,152.718-18.068
		c39.393-42.846,41.613-108.24,5.197-153.643c-18.208-22.701-43.459-36.996-70.394-42.041L325.708,1200.468z"/>
	<g>
		<path style="fill:#484666;" d="M319.921,1189.366c-30.113-3.773-61.546,3.102-88.229,21.377c-3.661,2.5-4.602,7.492-2.102,11.154
			c2.5,3.66,7.494,4.602,11.155,2.102c0.014-0.01,0.028-0.02,0.042-0.029c46.796-32.041,109.967-24.178,147.403,18.424
			c37.436,42.6,37.093,106.285-0.709,148.563s-101.003,49.686-147.521,17.242s-61.468-94.359-34.843-144.43
			c2.486-3.652,1.54-8.629-2.113-11.113c-3.653-2.486-8.629-1.541-11.116,2.111c-0.333,0.488-0.61,1.014-0.827,1.563
			c-30.364,57.104-13.365,127.979,39.685,164.979s125.553,28.611,168.663-19.605c43.11-48.213,43.52-121.234,0.827-169.818
			c-21.347-24.293-50.203-38.738-80.316-42.516L319.921,1189.366z"/>
		<path style="fill:#484666;" d="M316.85,1221.253c-22.426-3.031-45.845,1.789-65.906,15.115c-3.686,2.445-4.691,7.416-2.245,11.102
			s7.417,4.689,11.103,2.244c33.531-22.275,78.23-16.203,104.647,14.172s26.127,75.467-0.591,105.578
			c-26.718,30.109-71.458,35.717-104.765,13.109c-3.547-2.635-8.558-1.896-11.194,1.65c-2.635,3.545-1.897,8.557,1.65,11.191
			c0.184,0.137,0.373,0.264,0.567,0.385c39.855,27.053,93.7,20.322,125.671-15.707c31.97-36.027,32.318-90.369,0.709-126.715
			c-15.805-18.172-37.221-29.094-59.646-32.121L316.85,1221.253z"/>
		<path style="fill:#484666;" d="M88.873,1229.165c-0.988,0.1-1.949,0.381-2.834,0.832c-31.679,15.402-52.441,47.004-53.973,82.193
			c-1.532,35.189,16.43,68.465,46.65,86.564c30.221,18.098,67.957,18.193,98.261,0.24c3.833-2.223,5.138-7.133,2.914-10.967
			c-2.224-3.832-7.134-5.139-10.967-2.914c-0.032,0.02-0.064,0.037-0.096,0.057c-25.277,14.979-56.756,14.859-81.963-0.24
			c-25.207-15.094-40.015-42.686-38.738-72.037c1.278-29.35,18.455-55.648,44.879-68.496c4.018-1.838,5.786-6.584,3.949-10.602
			c-1.424-3.115-4.674-4.979-8.083-4.633L88.873,1229.165z"/>
		<path style="fill:#484666;" d="M215.124,1300.257c-4.116,0.473-7.19,4.008-7.086,8.148v15.943
			c-0.372,4.402,2.896,8.273,7.299,8.645c4.403,0.371,8.273-2.896,8.645-7.299c0.038-0.447,0.038-0.898,0-1.346v-15.943
			c0.108-4.416-3.386-8.084-7.803-8.193C215.827,1300.204,215.474,1300.22,215.124,1300.257L215.124,1300.257z"/>
	</g>
	<path style="fill:#64A5DA;" d="M148.304,1124.429l24.655,24.559l-49.184,61.367l4.187,5.217l53.371-66.586l-24.655-24.559
		L148.304,1124.429z"/>
</g>
<g>
</g>
<g>
</g>
<g>
</g>
<g>
</g>
<g>
</g>
<g>
</g>
<g>
</g>
<g>
</g>
<g>
</g>
<g>
</g>
<g>
</g>
<g>
</g>
<g>
</g>
<g>
</g>
<g>
</g>
</svg>
